HIERARCHY
ROOT Hips
{
	OFFSET 0.000000 0.000000 0.000000
	CHANNELS 6 Xposition Yposition Zposition Zrotation Yrotation Xrotation 
	JOINT LeftUpLeg_virtual
	{
		OFFSET 0.000000 0.000000 0.000000
		CHANNELS 3 Zrotation Yrotation Xrotation
		JOINT LeftUpLeg
		{
			OFFSET 8.479694 -4.795517 -0.379053
			CHANNELS 3 Zrotation Yrotation Xrotation
			JOINT LeftLeg
			{
				OFFSET 0.485052 -32.551468 0.112863
				CHANNELS 3 Zrotation Yrotation Xrotation
				JOINT LeftFoot
				{
					OFFSET 0.438033 -32.635670 -3.012641
					CHANNELS 3 Zrotation Yrotation Xrotation
					JOINT LeftToeBase
					{
						OFFSET 0.970169 -13.225353 11.864223
						CHANNELS 3 Zrotation Yrotation Xrotation
						End Site
						{
							OFFSET 0.000000 0.000000 0.000000
						}
					}
				}
			}
		}
	}
	JOINT RightUpLeg_virtual
	{
		OFFSET 0.000000 0.000000 0.000000
		CHANNELS 3 Zrotation Yrotation Xrotation
		JOINT RightUpLeg
		{
			OFFSET -8.479694 -4.795517 -0.379053
			CHANNELS 3 Zrotation Yrotation Xrotation
			JOINT RightLeg
			{
				OFFSET -0.484100 -32.551483 0.112903
				CHANNELS 3 Zrotation Yrotation Xrotation
				JOINT RightFoot
				{
					OFFSET -0.438985 -32.635651 -3.012681
					CHANNELS 3 Zrotation Yrotation Xrotation
					JOINT RightToeBase
					{
						OFFSET -0.970169 -13.225354 11.864223
						CHANNELS 3 Zrotation Yrotation Xrotation
						End Site
						{
							OFFSET 0.000000 0.000000 0.000000
						}
					}
				}
			}
		}
	}
	JOINT Spine_virtual
	{
		OFFSET 0.000000 0.000000 0.000000
		CHANNELS 3 Zrotation Yrotation Xrotation
		JOINT Spine
		{
			OFFSET 0.000000 7.722015 1.166203
			CHANNELS 3 Zrotation Yrotation Xrotation
			JOINT Spine1
			{
				OFFSET 0.000000 12.024086 0.248766
				CHANNELS 3 Zrotation Yrotation Xrotation
				JOINT Spine2
				{
					OFFSET -0.000000 11.503036 -0.491240
					CHANNELS 3 Zrotation Yrotation Xrotation
					JOINT Neck_virtual
					{
						OFFSET 0.000000 0.000000 0.000000
						CHANNELS 3 Zrotation Yrotation Xrotation
						JOINT Neck
						{
							OFFSET 0.000000 18.430687 -3.123054
							CHANNELS 3 Zrotation Yrotation Xrotation
							JOINT Head
							{
								OFFSET -0.000000 9.051071 1.034021
								CHANNELS 3 Zrotation Yrotation Xrotation
								End Site
								{
									OFFSET 0.000000 0.000000 0.000000
								}
							}
						}
					}
					JOINT LeftShoulder_virtual
					{
						OFFSET 0.000000 0.000000 0.000000
						CHANNELS 3 Zrotation Yrotation Xrotation
						JOINT LeftShoulder
						{
							OFFSET 6.197824 13.665230 -4.064723
							CHANNELS 3 Zrotation Yrotation Xrotation
							JOINT LeftArm
							{
								OFFSET 7.778132 -0.187073 -1.709282
								CHANNELS 3 Zrotation Yrotation Xrotation
								JOINT LeftForeArm
								{
									OFFSET 21.954697 0.000000 -2.041093
									CHANNELS 3 Zrotation Yrotation Xrotation
									JOINT LeftHand
									{
										OFFSET 22.992908 0.000000 -0.870901
										CHANNELS 3 Zrotation Yrotation Xrotation
										End Site
										{
											OFFSET 0.000000 0.000000 0.000000
										}
									}
								}
							}
						}
					}
					JOINT RightShoulder_virtual
					{
						OFFSET 0.000000 0.000000 0.000000
						CHANNELS 3 Zrotation Yrotation Xrotation
						JOINT RightShoulder
						{
							OFFSET -6.197824 13.665230 -4.064723
							CHANNELS 3 Zrotation Yrotation Xrotation
							JOINT RightArm
							{
								OFFSET -7.778132 -0.187073 -1.709282
								CHANNELS 3 Zrotation Yrotation Xrotation
								JOINT RightForeArm
								{
									OFFSET -21.954697 0.000000 -2.041093
									CHANNELS 3 Zrotation Yrotation Xrotation
									JOINT RightHand
									{
										OFFSET -22.992908 0.000000 -0.870901
										CHANNELS 3 Zrotation Yrotation Xrotation
										End Site
										{
											OFFSET 0.000000 0.000000 0.000000
										}
									}
								}
							}
						}
					}
				}
			}
		}
	}
}
MOTION
Frames: 7
Frame Time: 0.033333
-1.341704 55.484756 21.930416 -179.902770 6.720714 -179.870040 0.091507 -1.057907 -3.449442 5.843727 9.893122 -78.120309 5.698716 3.258209 94.036986 1.512596 -11.897836 -14.693287 0.000000 0.000000 0.000000 0.674002 1.780046 -2.420249 1.500626 -8.908485 -79.671910 1.245327 1.433165 95.556245 0.740615 9.028294 -14.658067 0.000000 0.000000 0.000000 -0.400697 3.413453 -0.092425 -1.505915 -2.731200 6.894813 0.240398 -0.779932 7.637920 0.007572 0.035932 -0.010491 0.054918 -0.402276 10.002611 -2.221556 4.234634 -10.742863 0.000000 0.000000 0.000000 2.072086 0.060511 6.534352 -2.815729 -8.221633 1.725990 -27.737834 -53.803391 -5.771035 2.853239 -77.944992 2.774885 0.000000 0.000000 0.000000 -2.162821 1.811620 5.907764 16.158040 13.681825 -0.161946 36.572801 21.926227 -8.515547 -43.710117 88.613365 -51.044749 0.000000 0.000000 0.000000 
-1.336363 55.521385 21.925272 179.959871 6.828998 -179.881105 -0.005000 -1.086490 -3.415890 5.847253 9.921648 -78.073529 5.696665 3.267195 93.993976 1.546288 -11.922203 -14.674926 0.000000 0.000000 0.000000 0.583311 1.723698 -2.449858 1.476893 -8.878390 -79.643865 1.279514 1.464214 95.482930 0.756321 9.095333 -14.605315 0.000000 0.000000 0.000000 -0.502322 3.468319 -0.038142 -1.550947 -2.854353 6.829691 0.137047 -0.757078 7.640098 0.024510 0.047794 0.018049 -0.003500 -0.365591 9.864617 -2.550709 4.236904 -10.944403 0.000000 0.000000 0.000000 2.000687 0.088447 6.458302 -2.530877 -8.240227 1.180808 -27.357104 -55.041202 -7.336906 2.844365 -76.823987 1.816395 0.000000 0.000000 0.000000 -2.210186 1.774540 5.774080 17.168449 13.834147 0.098062 35.044335 22.685114 -8.492281 -24.834814 87.817614 -31.390149 0.000000 0.000000 0.000000 
-1.325718 55.541679 21.933439 179.886200 7.000443 -179.898563 -0.060500 -1.012223 -3.391066 5.876340 9.982199 -78.037739 5.679495 3.241880 93.963513 1.599423 -11.901487 -14.675061 0.000000 0.000000 0.000000 0.579632 1.787470 -2.457841 1.502221 -8.845792 -79.609488 1.299321 1.458492 95.436608 0.719528 9.078070 -14.583045 0.000000 0.000000 0.000000 -0.608707 3.440196 0.035576 -1.610593 -3.054251 6.801747 0.015373 -0.805681 7.651259 0.009329 -0.003284 -0.000870 -0.058856 -0.303538 9.805756 -2.878689 4.148840 -11.165157 0.000000 0.000000 0.000000 1.970816 0.217912 6.438372 -2.290464 -8.025775 0.665570 -27.288069 -56.219048 -8.696260 2.167757 -75.654194 1.766219 0.000000 0.000000 0.000000 -2.225190 1.842633 5.787000 18.097249 14.033821 0.180347 33.714753 23.459798 -8.295483 -18.554446 87.175405 -24.412145 0.000000 0.000000 0.000000 
-1.307550 55.536282 21.936138 179.950486 6.914855 -179.975553 -0.073790 -1.115511 -3.409632 5.975628 9.938183 -77.979682 5.647161 3.212739 93.984100 1.626224 -11.944345 -14.694240 0.000000 0.000000 0.000000 0.589709 1.648782 -2.358061 1.600925 -8.860599 -79.594312 1.314665 1.416062 95.436034 0.710782 9.098854 -14.614105 0.000000 0.000000 0.000000 -0.634201 3.462580 0.141533 -1.617184 -3.239863 6.817408 -0.040394 -0.830724 7.706368 0.025388 -0.005946 0.021474 -0.203936 -0.387725 9.690616 -3.180095 4.202787 -11.395032 0.000000 0.000000 0.000000 1.829867 0.138537 6.361227 -1.914697 -8.017423 0.111717 -27.569548 -57.145850 -9.567912 2.292973 -74.317711 1.144058 0.000000 0.000000 0.000000 -2.339706 1.714377 5.722855 19.072122 13.944670 0.258967 32.753776 24.392837 -7.887218 -16.684366 86.731579 -21.970847 0.000000 0.000000 0.000000 
-1.280542 55.510052 21.929960 179.945582 7.059871 -179.892074 -0.096760 -1.034541 -3.449827 6.010667 9.998892 -78.052759 5.602482 3.183712 94.061083 1.642555 -11.940584 -14.677889 0.000000 0.000000 0.000000 0.565003 1.779126 -2.391196 1.669116 -8.862644 -79.658618 1.309671 1.398596 95.454414 0.622915 9.101951 -14.704065 0.000000 0.000000 0.000000 -0.710147 3.556945 0.118624 -1.702282 -3.412375 6.788242 -0.122377 -0.859486 7.741086 0.022231 -0.030764 0.009786 -0.260705 -0.392352 9.732062 -3.422519 4.284965 -11.660233 0.000000 0.000000 0.000000 1.770074 0.171827 6.401889 -1.542885 -7.999733 -0.328376 -27.950905 -57.927128 -10.217954 2.258753 -72.678376 0.882200 0.000000 0.000000 0.000000 -2.402141 1.766608 5.747979 19.943189 13.982997 0.276205 32.107080 25.107806 -7.506576 -15.602712 86.502959 -20.434572 0.000000 0.000000 0.000000 
-1.250512 55.472359 21.920900 179.962780 7.216587 -179.904451 -0.103800 -0.913918 -3.446139 6.073817 10.016961 -78.098760 5.544438 3.123501 94.140989 1.663553 -11.913976 -14.736756 0.000000 0.000000 0.000000 0.558037 1.916597 -2.364504 1.751080 -8.865359 -79.700904 1.303399 1.355521 95.510381 0.555805 9.115407 -14.800460 0.000000 0.000000 0.000000 -0.752446 3.676114 0.115816 -1.810022 -3.547554 6.841611 -0.193939 -0.856653 7.834843 0.013729 -0.020094 0.020523 -0.348470 -0.397017 9.776529 -3.650724 4.547585 -11.921077 0.000000 0.000000 0.000000 1.706383 0.179939 6.449898 -1.118091 -8.078056 -0.782435 -28.499897 -58.635712 -10.592883 1.830009 -70.921802 1.203763 0.000000 0.000000 0.000000 -2.464877 1.746304 5.797187 20.762747 13.849593 0.331451 31.640804 25.804487 -7.294166 -14.184720 86.364170 -18.692086 0.000000 0.000000 0.000000 
-1.221484 55.436668 21.913792 179.842337 7.392846 -179.946880 -0.189212 -0.793421 -3.416499 6.105785 10.018305 -78.103445 5.490510 3.094173 94.207420 1.700982 -11.843469 -14.817684 0.000000 0.000000 0.000000 0.482889 2.022272 -2.355232 1.777784 -8.888662 -79.723894 1.307348 1.390143 95.603264 0.472408 9.082830 -14.854910 0.000000 0.000000 0.000000 -0.814175 3.783369 0.073838 -2.008004 -3.649647 6.935259 -0.330317 -0.834299 7.987611 0.056062 -0.022945 -0.027192 -0.367817 -0.370315 9.877365 -3.785638 4.538084 -12.235784 0.000000 0.000000 0.000000 1.676858 0.218642 6.571216 -0.700565 -8.220862 -1.110231 -29.384130 -59.243237 -10.315943 1.928831 -69.102274 1.111232 0.000000 0.000000 0.000000 -2.473885 1.739313 5.930098 21.395544 13.709521 0.258537 31.552206 26.336697 -6.955234 -14.315479 86.203981 -18.616003 0.000000 0.000000 0.000000 
